<svg width="512" height="512" viewBox="0 0 512 512" fill="none" xmlns="http://www.w3.org/2000/svg">
  <defs>
    <linearGradient id="bg" x1="72" y1="64" x2="432" y2="448" gradientUnits="userSpaceOnUse">
      <stop stop-color="#F7F1E7"/>
      <stop offset="1" stop-color="#D9EAF4"/>
    </linearGradient>
    <linearGradient id="shine" x1="118" y1="88" x2="290" y2="246" gradientUnits="userSpaceOnUse">
      <stop stop-color="#FFFFFF" stop-opacity="0.72"/>
      <stop offset="1" stop-color="#FFFFFF" stop-opacity="0"/>
    </linearGradient>
  </defs>
  <rect x="48" y="48" width="416" height="416" rx="116" fill="url(#bg)"/>
  <path d="M108 122C146 86 206 64 292 64C324 64 356 67 404 80V182C366 148 322 126 280 126C216 126 170 150 136 200C126 184 118 158 108 122Z" fill="url(#shine)" fill-opacity="0.56"/>
  <path d="M186 376L256 156" stroke="#16324A" stroke-width="74" stroke-linecap="round" stroke-linejoin="round"/>
  <path d="M256 156L326 376" stroke="#0F766E" stroke-width="74" stroke-linecap="round" stroke-linejoin="round"/>
  <path d="M214 292H298" stroke="#F28C6F" stroke-width="62" stroke-linecap="round"/>
  <path d="M356 154L367 178L391 189L367 200L356 224L345 200L321 189L345 178L356 154Z" fill="#F5B37A"/>
</svg>
