<svg width="1024" height="1024" viewBox="0 0 1024 1024" fill="none" xmlns="http://www.w3.org/2000/svg">
  <defs>
    <radialGradient id="bg" cx="50%" cy="50%" r="50%">
      <stop offset="0%" stop-color="#FAFAFA"/>
      <stop offset="100%" stop-color="#E2E8F0"/>
    </radialGradient>

    <linearGradient id="orbGradient" x1="300" y1="300" x2="724" y2="724" gradientUnits="userSpaceOnUse">
      <stop offset="0%" stop-color="#00F2FE"/>
      <stop offset="100%" stop-color="#4FACFE"/>
    </linearGradient>

    <filter id="glass">
      <feGaussianBlur stdDeviation="24" result="blur"/>
      <feColorMatrix type="matrix" values="1 0 0 0 0  0 1 0 0 0  0 0 1 0 0  0 0 0 18 -7" result="goo"/>
      <feComposite in="SourceGraphic" in2="goo" operator="atop"/>
    </filter>

    <filter id="shadow">
      <feDropShadow dx="0" dy="32" stdDeviation="40" flood-color="#4FACFE" flood-opacity="0.4"/>
    </filter>
  </defs>

  <rect width="1024" height="1024" rx="224" fill="url(#bg)"/>

  <!-- Core Body -->
  <circle cx="512" cy="512" r="280" fill="url(#orbGradient)" filter="url(#shadow)"/>
  
  <!-- Neural Network Elements -->
  <g stroke="#FFFFFF" stroke-width="8" stroke-linecap="round" stroke-linejoin="round" opacity="0.8">
    <line x1="512" y1="332" x2="380" y2="450"/>
    <line x1="512" y1="332" x2="644" y2="450"/>
    <line x1="380" y1="450" x2="420" y2="600"/>
    <line x1="644" y1="450" x2="604" y2="600"/>
    <line x1="420" y1="600" x2="512" y2="680"/>
    <line x1="604" y1="600" x2="512" y2="680"/>
    
    <!-- Cross links -->
    <line x1="380" y1="450" x2="644" y2="450"/>
    <line x1="420" y1="600" x2="604" y2="600"/>
    <line x1="512" y1="332" x2="512" y2="680"/>
  </g>

  <!-- Nodes -->
  <g fill="#FFFFFF">
    <circle cx="512" cy="332" r="24"/>
    <circle cx="380" cy="450" r="24"/>
    <circle cx="644" cy="450" r="24"/>
    <circle cx="420" cy="600" r="24"/>
    <circle cx="604" cy="600" r="24"/>
    <circle cx="512" cy="680" r="24"/>
    <circle cx="512" cy="512" r="48" fill="#FFFFFF"/>
  </g>

  <!-- Inner Glass Highlight -->
  <circle cx="512" cy="512" r="280" fill="none" stroke="url(#orbGradient)" stroke-width="20" style="mix-blend-mode: overlay;"/>
  <path d="M300 350 A 280 280 0 0 1 724 350" stroke="#FFFFFF" stroke-width="12" fill="none" opacity="0.5" stroke-linecap="round"/>
</svg>
