<svg width="1024" height="1024" viewBox="0 0 1024 1024" fill="none" xmlns="http://www.w3.org/2000/svg">
  <defs>
    <linearGradient id="bg" x1="130" y1="110" x2="886" y2="914" gradientUnits="userSpaceOnUse">
      <stop stop-color="#F2F6F5"/>
      <stop offset="1" stop-color="#DCE9E6"/>
    </linearGradient>
    <linearGradient id="panel" x1="248" y1="244" x2="760" y2="794" gradientUnits="userSpaceOnUse">
      <stop stop-color="#12324A"/>
      <stop offset="1" stop-color="#0F766E"/>
    </linearGradient>
  </defs>
  <rect x="96" y="96" width="832" height="832" rx="208" fill="url(#bg)"/>
  <rect x="232" y="250" width="560" height="524" rx="104" fill="url(#panel)"/>
  <rect x="278" y="298" width="468" height="72" rx="36" fill="#EAF3EF" fill-opacity="0.18"/>
  <circle cx="334" cy="334" r="16" fill="#FFF4D8"/>
  <circle cx="386" cy="334" r="16" fill="#F6B38C"/>
  <circle cx="438" cy="334" r="16" fill="#7EE0D6"/>
  <path d="M512 402L560 512L670 560L560 608L512 718L464 608L354 560L464 512L512 402Z" fill="#FFF4D8"/>
  <path d="M660 424L680 470L726 490L680 510L660 556L640 510L594 490L640 470L660 424Z" fill="#F28C6F"/>
</svg>
